PathFileType	4	(X/Y/Z)	C:\Users\WrightLab\Desktop\Jo\P2_Trial30.trc
DataRate	CameraRate	NumFrames	NumMarkers	Units	OrigDataRate	OrigDataStartFrame	OrigNumFrames
100.00	100.00	       10	19	mm	100.00	148	       591
Frame#	Time	Headset_Front			Headset_Back			Headset_Left			Headset_Right			Left_Shoulder			Right_Shoulder			Sternum			C7			Left Elbow			Right Elbow			Left Wrist			Right Wrist			Left ASIS			Right ASIS			S2			Left Knee			Right Knee			Left Ankle			Right Ankle			
		X1	Y1	Z1	X2	Y2	Z2	X3	Y3	Z3	X4	Y4	Z4	X5	Y5	Z5	X6	Y6	Z6	X7	Y7	Z7	X8	Y8	Z8	X9	Y9	Z9	X10	Y10	Z10	X11	Y11	Z11	X12	Y12	Z12	X13	Y13	Z13	X14	Y14	Z14	X15	Y15	Z15	X16	Y16	Z16	X17	Y17	Z17	X18	Y18	Z18	X19	Y19	Z19	

148	1.470				-770.28473	1647.76257	-600.98053	-647.98041	1549.01367	-526.10114	-852.85822	1517.00452	-432.45898	-625.05194	1390.09485	-571.59406	-949.37305	1398.40149	-599.44104	-799.95477	1286.59900	-509.59839	-794.69904	1379.58032	-698.35089	-522.89972	1074.39563	-601.21619	-1060.14331	1074.12085	-599.98096	-522.26337	1046.16711	-420.99594	-1129.29993	846.46216	-508.45764	-774.56049	994.55603	-444.40079	-891.46661	974.27106	-495.03018	-722.57086	899.97058	-701.81848	-733.66138	434.75458	-380.44684	-927.76526	497.63318	-762.17670	-817.43658	106.97114	-284.91174				
149	1.480				-773.60779	1649.20325	-592.12903	-650.79816	1550.09253	-520.85107	-855.91248	1519.49524	-423.55759	-627.92719	1392.19458	-562.01630	-951.91644	1400.30640	-591.34247	-802.47552	1288.30811	-500.22318	-796.95251	1381.33948	-689.33844	-526.29535	1075.40332	-589.21613	-1061.28113	1075.32288	-589.79718	-524.77783	1051.02734	-410.19696	-1129.08118	846.86865	-499.09531	-776.68616	995.43115	-433.54025	-893.42072	977.57886	-480.58435	-723.94507	901.11719	-691.66974	-735.63409	436.91547	-366.21057	-928.99756	498.04208	-746.60760	-818.27521	104.98945	-283.76773				
150	1.490				-776.69830	1651.06519	-583.79242	-653.76245	1552.07544	-513.15125	-859.07477	1521.94360	-415.33755	-630.62897	1394.04358	-551.60510	-954.57874	1402.14160	-583.41052	-805.44531	1290.72888	-491.75626	-799.27832	1382.84106	-680.45264	-529.50848	1077.93347	-577.03864	-1062.34985	1076.75488	-579.89856	-502.16064	1073.45313	-304.88770	-1129.75220	848.09351	-489.91437	-778.32111	997.61609	-421.99393	-895.85455	981.00885	-469.94806	-725.06738	902.07318	-680.65192	-737.36505	438.88397	-354.03094	-930.23193	497.96249	-730.17719	-819.50763	103.29159	-284.19623	-864.03027	129.74008	-915.13824	
151	1.500				-779.79517	1652.79578	-575.38684	-656.27936	1554.54431	-506.24072	-860.85773	1523.49475	-406.09387	-633.33429	1396.07739	-542.86401	-957.23431	1403.56042	-575.67206	-808.73328	1293.06763	-483.02698	-801.57184	1384.16602	-672.20435	-532.06647	1079.71057	-564.76514	-1063.44067	1078.19690	-570.79877				-1129.74402	849.01135	-481.61722	-780.17474	999.42407	-412.25659	-897.22028	978.88049	-466.79831	-725.24304	902.53357	-669.88116	-738.83307	442.38940	-341.98328	-931.44684	497.61050	-713.46082	-820.62085	103.23183	-285.08185	-866.48859	135.80263	-903.49054	
152	1.510				-782.82751	1654.76807	-566.77295	-659.02460	1556.14307	-497.42242	-862.33380	1525.53430	-396.87646	-636.64771	1398.61255	-533.05554	-959.68958	1404.87292	-567.67413	-812.75629	1294.68213	-474.59448	-803.77637	1385.75110	-663.52386	-534.73462	1081.71057	-551.25769	-1066.19666	1080.46631	-562.23419	-523.93945	1068.40369	-377.69031	-1130.35291	850.22809	-472.00061	-782.81274	1000.44495	-403.82138	-899.61432	980.11835	-455.60925	-726.61304	904.27173	-661.00519	-739.42242	445.20923	-332.57996	-932.78302	496.69687	-696.21057	-820.07825	104.22441	-285.85852	-869.47729	143.51320	-890.23993	
153	1.520				-785.79614	1656.72290	-558.32806	-661.19012	1557.75720	-489.50455	-864.51343	1527.69446	-388.01013	-639.61975	1400.72815	-524.16406	-962.63208	1406.83020	-560.82336	-816.06543	1297.03967	-465.84991	-805.88861	1387.50989	-655.65503	-536.66748	1084.64453	-539.74585	-1067.36206	1081.64832	-552.86426				-1129.88977	850.63525	-462.50714	-784.95959	1002.96368	-394.14743	-901.83698	980.88330	-448.92282	-726.75897	905.85791	-651.46490	-739.51532	447.50830	-322.89240	-934.56378	494.83698	-679.05219	-819.95837	105.27229	-286.18582	-872.73108	149.26117	-875.93115	
154	1.530				-788.75952	1658.63086	-550.10907	-663.92688	1559.78430	-483.00146	-867.67975	1529.05176	-379.81982	-642.71429	1403.10449	-514.69647	-965.69019	1408.46667	-554.05139	-819.44379	1299.27551	-458.30746	-807.86810	1389.28308	-647.16919	-540.03613	1088.07117	-526.22034	-1068.51978	1082.74219	-544.03052	-525.11938	1093.99854	-256.26001	-1130.15503	852.18628	-452.82483	-787.93811	1003.97772	-387.25873	-904.69635	983.01318	-441.25226	-727.30945	907.60400	-641.82410	-739.90900	449.87079	-312.38635	-936.00354	493.19214	-661.24554	-818.85541	106.42960	-286.47903	-1099.78137	698.57001	-400.95370	
155	1.540				-791.64362	1660.53430	-541.52631	-666.84290	1561.61218	-475.06421	-869.21747	1530.98206	-370.64902	-645.68713	1405.03394	-505.27570	-968.06598	1409.65491	-546.54388	-822.50421	1300.46338	-449.36472	-809.94623	1390.98633	-639.21332	-543.09674	1090.37854	-515.28015	-1069.63879	1083.89185	-536.27002				-1130.41113	853.69537	-444.00079	-790.22919	1006.76630	-377.08398	-907.47601	983.80219	-434.39050	-728.07495	908.93298	-631.71753	-738.24664	452.55978	-303.93863	-937.67822	490.75891	-642.15460	-818.37402	106.89188	-287.13388				
156	1.550				-794.55103	1662.49780	-533.44250	-669.53821	1563.38367	-466.85715	-871.13806	1532.29663	-362.12558	-648.65771	1407.72595	-497.45700	-970.66284	1411.24817	-539.42676	-825.64008	1302.18274	-441.37439	-811.88647	1392.69690	-631.08606	-544.20654	1093.61975	-504.24185	-1070.89587	1084.95337	-528.14417	-542.04968	1084.57629	-319.50735	-1131.86499	855.34509	-435.23633	-792.29248	1006.71692	-372.51053	-909.03101	984.68903	-427.46643	-729.34247	910.92218	-623.06543	-737.27179	454.23285	-296.42435	-940.14563	490.16882	-623.93298	-816.17383	107.86884	-288.27917				
157	1.560				-797.25940	1664.37000	-525.50562	-672.18555	1565.00049	-459.27066	-874.26123	1534.69653	-354.03061	-651.62640	1409.78845	-487.75763	-973.17670	1412.54041	-532.86011	-828.89661	1304.57349	-434.07404	-813.84216	1394.38501	-622.56488	-546.49329	1096.76233	-492.95804	-1071.90125	1086.18896	-521.15509				-1131.10681	857.01880	-425.70779	-794.57587	1008.75824	-364.30823	-911.56512	986.16559	-418.56610	-729.45233	912.50165	-614.52124	-735.75055	454.77612	-289.40039	-940.46735	488.70590	-603.21936	-813.83960	107.35828	-287.48480				
